<?xml version="1.0" encoding="UTF-8" standalone="no"?>
<!-- Created with Inkscape (http://www.inkscape.org/) -->

<svg
   width="210mm"
   height="297mm"
   viewBox="0 0 210 297"
   version="1.1"
   id="svg1"
   inkscape:version="1.3 (0e150ed6c4, 2023-07-21)"
   sodipodi:docname="logo2A.svg"
   xmlns:inkscape="http://www.inkscape.org/namespaces/inkscape"
   xmlns:sodipodi="http://sodipodi.sourceforge.net/DTD/sodipodi-0.dtd"
   xmlns="http://www.w3.org/2000/svg"
   xmlns:svg="http://www.w3.org/2000/svg">
  <sodipodi:namedview
     id="namedview1"
     pagecolor="#ffffff"
     bordercolor="#000000"
     borderopacity="0.25"
     inkscape:showpageshadow="2"
     inkscape:pageopacity="0.0"
     inkscape:pagecheckerboard="0"
     inkscape:deskcolor="#d1d1d1"
     inkscape:document-units="mm"
     inkscape:zoom="1.0449705"
     inkscape:cx="397.61888"
     inkscape:cy="484.70268"
     inkscape:window-width="3440"
     inkscape:window-height="1369"
     inkscape:window-x="1072"
     inkscape:window-y="164"
     inkscape:window-maximized="1"
     inkscape:current-layer="layer1" />
  <defs
     id="defs1" />
  <g
     inkscape:label="Layer 1"
     inkscape:groupmode="layer"
     id="layer1">
    <path
       style="fill:none;fill-opacity:1;stroke:#ffffff;stroke-width:4;stroke-dasharray:none;stroke-opacity:1"
       id="path7"
       sodipodi:type="arc"
       sodipodi:cx="101.78516"
       sodipodi:cy="111.65984"
       sodipodi:rx="69.629158"
       sodipodi:ry="70.641937"
       sodipodi:start="0.48171087"
       sodipodi:end="4.9497538"
       sodipodi:open="true"
       sodipodi:arc-type="arc"
       d="M 163.49077,144.38797 A 69.629158,70.641937 0 0 1 74.653471,176.71816 69.629158,70.641937 0 0 1 35.664752,89.517829 69.629158,70.641937 0 0 1 118.15791,42.998636" />
    <path
       style="fill:none;fill-opacity:1;stroke:#ffffff;stroke-width:4.22293;stroke-dasharray:none;stroke-opacity:1;stroke-linecap:round"
       id="path8"
       sodipodi:type="arc"
       sodipodi:cx="118.91521"
       sodipodi:cy="104.76579"
       sodipodi:rx="60.988865"
       sodipodi:ry="61.904518"
       sodipodi:start="0.68784736"
       sodipodi:end="4.7043334"
       sodipodi:arc-type="arc"
       d="M 166.03609,144.06745 A 60.988865,61.904518 0 0 1 92.064715,160.34825 60.988865,61.904518 0 0 1 59.448852,91.020152 60.988865,61.904518 0 0 1 118.42391,42.863276"
       sodipodi:open="true"
       transform="matrix(0.99999927,0.0012114,-0.01766681,0.99984393,0,0)" />
    <path
       style="fill:none;fill-opacity:1;stroke:#ffffff;stroke-width:14.4675;stroke-dasharray:none;stroke-opacity:1"
       d="M 366.74921,680.40676 C 293.37983,674.69257 226.32277,637.85116 181.97751,578.89245 156.08998,544.474 139.70205,505.26977 132.36957,460.21719 c -2.84808,-17.49931 -3.11345,-56.84026 -0.49648,-73.60342 9.16169,-58.68579 33.50153,-108.07059 72.79909,-147.70715 30.49804,-30.76114 66.75167,-52.62455 107.95331,-65.1032 12.26083,-3.71341 31.70731,-7.82672 40.973,-8.6666 l 6.22027,-0.56382 -11.48358,4.14107 c -28.00931,10.1004 -50.27865,22.33036 -74.16477,40.73011 -10.95895,8.4418 -31.07537,28.20652 -40.11939,39.41799 -29.60268,36.6971 -47.74899,80.07286 -52.74782,126.08493 -1.65809,15.26204 -0.66063,50.01775 1.81789,63.34277 9.01527,48.46779 30.06899,89.69709 63.21515,123.79368 59.86688,61.58348 148.51856,87.62055 236.51127,69.46354 28.80682,-5.94419 62.07715,-19.47162 85.5985,-34.80361 4.5894,-2.99153 8.52841,-5.25509 8.75334,-5.03016 0.82386,0.82384 -24.35638,25.32171 -33.75108,32.83646 -30.95874,24.76365 -69.84928,43.26132 -107.07233,50.92725 -21.99526,4.52983 -49.63459,6.48676 -69.62673,4.92973 z"
       id="path11"
       transform="scale(0.26458333)" />
    <path
       style="fill:none;fill-opacity:1;stroke:#ffffff;stroke-width:14.4675;stroke-dasharray:none;stroke-opacity:1"
       d="m 369.86689,672.6639 c -21.49317,-1.15614 -47.60738,-6.70218 -69.51388,-14.7631 -22.40981,-8.24615 -49.78139,-23.79048 -69.24602,-39.32486 -10.31199,-8.22982 -29.18797,-27.12796 -37.65412,-37.69832 -27.44349,-34.26442 -46.05233,-76.54446 -53.28072,-121.05604 -3.39972,-20.9351 -2.69756,-62.59261 1.40603,-83.41594 13.69053,-69.47147 52.12496,-127.5385 109.34472,-165.19882 10.4979,-6.9094 25.97139,-15.49504 26.6689,-14.79753 0.25088,0.25088 -2.89244,2.97102 -6.98517,6.04474 -9.37209,7.03864 -34.86208,31.94263 -43.03993,42.05047 -10.60172,13.10375 -21.22043,29.96646 -29.52816,46.89128 -20.45558,41.67286 -27.94736,81.27963 -24.42774,129.1421 3.63134,49.38173 25.00974,99.79211 58.11752,137.04138 42.89978,48.26616 98.80937,77.37733 164.4551,85.62895 12.47661,1.5683 50.8959,1.57996 63.15967,0.0192 16.87627,-2.14782 37.42777,-6.71386 52.33039,-11.6265 7.97775,-2.62986 14.63723,-4.64936 14.79883,-4.48776 0.49487,0.49487 -14.15486,9.78309 -24.21641,15.35367 -32.21616,17.8365 -68.85455,28.40212 -103.62848,29.88396 -6.08118,0.25914 -12.34859,0.58038 -13.92758,0.71389 -1.57899,0.1335 -8.25382,-0.0468 -14.83295,-0.40073 z"
       id="path12"
       transform="scale(0.26458333)" />
    <path
       style="fill:none;fill-opacity:1;stroke:#ffffff;stroke-width:14.4675;stroke-dasharray:none;stroke-opacity:1"
       d="m 359.34027,664.0922 c -19.26803,-2.38486 -43.34798,-8.41058 -59.80461,-14.96538 -18.81796,-7.49534 -41.77805,-20.41296 -58.71968,-33.03637 -11.89927,-8.86629 -35.9658,-32.98465 -45.20177,-45.29911 -26.10254,-34.80295 -44.48657,-80.19532 -48.70772,-120.26517 -1.22939,-11.67013 -1.20604,-40.37589 0.0446,-54.82123 3.64514,-42.10285 23.87522,-91.5698 51.55914,-126.07333 2.84754,-3.54899 5.32063,-6.30944 5.49575,-6.13431 0.17513,0.17512 -2.14106,4.58607 -5.14708,9.8021 -14.36226,24.92136 -25.77439,56.20421 -30.34078,83.16998 -3.86335,22.81416 -4.3366,56.20455 -1.11218,78.47111 7.85895,54.27072 31.81331,101.82397 70.80035,140.55005 39.33273,39.06945 86.07858,62.92432 144.10114,73.53622 11.03832,2.01883 14.64091,2.18777 46.65214,2.18777 19.07955,0 34.69004,0.0892 34.68997,0.19815 -2.5e-4,0.4547 -19.27986,6.08529 -26.79512,7.82548 -15.78246,3.65451 -27.94878,4.97841 -49.28368,5.36293 -11.57928,0.2087 -24.28299,-0.0203 -28.23047,-0.50889 z"
       id="path13"
       transform="scale(0.26458333)" />
    <path
       style="fill:none;fill-opacity:1;stroke:#ffffff;stroke-width:14.4675;stroke-dasharray:none;stroke-opacity:1"
       d="m 364.1251,656.41778 c -43.34988,-2.88015 -95.71861,-25.58633 -129.84615,-56.29906 -13.64648,-12.28101 -29.19101,-29.32136 -36.9909,-40.55048 -23.30021,-33.54417 -39.19013,-75.00484 -42.7438,-111.52902 -1.86525,-19.17074 -0.71689,-51.91871 2.35532,-67.16724 1.17887,-5.85112 1.22477,-5.28321 0.77348,9.56965 -1.91241,62.94162 16.84622,120.33063 55.02046,168.32625 14.33182,18.01908 37.82432,39.79842 58.12752,53.88866 28.35135,19.67556 63.89196,34.41111 102.39523,42.45423 11.50111,2.40251 10.20414,2.58898 -9.09116,1.30701 z"
       id="path14"
       transform="scale(0.26458333)" />
    <path
       style="fill:none;fill-opacity:1;stroke:#ffffff;stroke-width:4;stroke-dasharray:none;stroke-opacity:1"
       d="m 41.513011,100.77238 c 0.425757,-0.6752 0.94453,-1.30002 1.27727,-2.025579 0.123251,-0.268753 0.202624,-4.253775 -0.253198,-3.797954 -0.465264,0.465268 1.095661,3.835956 1.265986,4.304348 0.07582,0.208505 0.737429,2.807325 1.012788,2.531965 0.364093,-0.36409 -0.909404,-3.53422 -1.012788,-4.051147 -0.199538,-0.997686 0.694442,-3.114418 0.784016,-3.418157"
       id="path15" />
    <path
       style="fill:none;fill-opacity:1;stroke:#ffffff;stroke-width:4;stroke-dasharray:none;stroke-opacity:1"
       d="M 49.460689,83.933174 53.976582,69.716993"
       id="path16" />
    <path
       style="fill:none;fill-opacity:1;stroke:#ffffff;stroke-width:4;stroke-dasharray:none;stroke-opacity:1"
       d="m 60.210355,64.691815 c -0.99595,0.210997 -2.031555,0.283795 -2.987849,0.632992 -0.169873,0.06203 -3.028373,1.762389 -3.29156,2.025576 -0.614966,0.614965 0.07529,0.3718 -0.506394,0.759592 -1.36285,0.908566 -2.37604,1.869643 -3.544758,3.038361 -0.362878,0.362881 -0.104367,0.960604 0,1.012788 0.384702,0.192352 2.452844,0.114686 2.734956,0.149341"
       id="path17" />
    <path
       style="fill:none;fill-opacity:1;stroke:#ffffff;stroke-width:4;stroke-dasharray:none;stroke-opacity:1"
       d="m 71.598003,53.565961 c 1.138471,1.249786 0.261938,0.680376 2.841892,-0.394607 0.578819,-0.241173 1.253969,-0.413983 1.772381,-0.75959 0.499324,-0.332883 0.951042,-0.823407 1.519182,-1.012788 0.160133,-0.05338 0.346257,0.05338 0.506394,0 0.790307,-0.263435 -0.0844,-0.168799 0.253195,-0.506394 0.119359,-0.119358 0.387035,0.119359 0.506394,0 0.133448,-0.133445 0.119751,-0.372946 0.253199,-0.506394 0.05968,-0.05968 0.193516,0.05968 0.253195,0 0.214524,-0.214524 -0.209513,-1.044974 0,-1.265983 1.02919,-1.085673 2.141104,-2.089812 3.211658,-3.134717"
       id="path18" />
    <path
       style="fill:none;fill-opacity:1;stroke:#ffffff;stroke-width:4;stroke-dasharray:none;stroke-opacity:1"
       d="m 92.163682,44.63893 c 0,-0.363018 -0.29504,-0.877554 0,-1.089059 0.411565,-0.295039 1.012788,0 1.519182,0 0.421994,0 0.843989,0 1.265983,0 0.785794,0 4.611198,0.256138 5.063943,-0.253196 0.63931,-0.71923 1.18158,-1.519179 1.77236,-2.278768"
       id="path19" />
    <path
       style="fill:none;fill-opacity:1;stroke:#ffffff;stroke-width:4;stroke-dasharray:none;stroke-opacity:1"
       d="m 113.49555,172.30051 c 4.37836,-1.62972 9.02714,-1.13939 13.60931,-1.13939 0.76771,0 2.71257,0.24784 3.29156,0 0.84433,-0.36141 1.66141,-0.78341 2.49212,-1.17511"
       id="path20" />
    <path
       style="fill:none;fill-opacity:1;stroke:#ffffff;stroke-width:14.4675;stroke-dasharray:none;stroke-opacity:1"
       d="m 288.94353,587.49009 c -18.22168,-12.41657 -38.90731,-31.51393 -52.25246,-48.24044 -23.76731,-29.78941 -41.76031,-71.56049 -46.7864,-108.6155 -1.93465,-14.26334 -1.74993,-51.78862 0.31812,-64.62453 7.86142,-48.79383 29.65328,-92.21502 63.78647,-127.09723 16.19266,-16.54798 32.38867,-29.88577 46.95616,-38.66948 9.51277,-5.73588 15.49995,-8.98043 15.8766,-8.60378 0.23136,0.23136 -2.06198,2.06186 -5.09631,4.06778 -25.69545,16.98657 -55.6345,48.34456 -71.71523,75.11412 -37.48031,62.39342 -46.5941,136.15513 -25.12598,203.35502 11.53173,36.09682 30.78348,68.21183 56.68657,94.56229 8.22966,8.3718 18.4306,17.48506 25.06936,22.39634 1.57826,1.16757 2.41199,2.1365 1.85275,2.15317 -0.55924,0.0167 -4.86558,-2.59232 -9.56965,-5.79776 z"
       id="path21"
       transform="scale(0.26458333)" />
    <path
       style="fill:none;fill-opacity:1;stroke:#ffffff;stroke-width:4;stroke-dasharray:none;stroke-opacity:1"
       d="m 49.460689,83.933172 c 0.646094,1.899515 1.400337,3.765616 1.938287,5.69854 0.248918,0.894398 -0.115152,1.863947 0,2.785166 0.02342,0.187266 0.207426,0.323307 0.253196,0.506394 0.153961,0.615833 -0.07801,1.401476 0,2.025575 0.0844,0.675193 0.141332,1.354389 0.253198,2.025576 -0.08794,0.515165 0.417259,0.820309 0.506394,1.265984 0.264729,1.323644 -0.253198,3.291393 -0.253198,4.810743 0,0.81827 0.155959,1.50086 0.253198,2.27877 0.194884,1.55908 0.192614,4.28261 0,5.82353 -0.117041,0.93632 -0.381682,1.84984 -0.506394,2.78517 -0.0293,0.21976 -0.38586,3.15889 -0.253198,3.29156 0.05968,0.0597 0.22651,-0.0801 0.253198,0 0.106757,0.32027 -0.150976,0.71083 0,1.01278 0.05566,0.11132 0.534125,1.10431 0.253196,1.26599 -0.127095,0.0731 -0.293288,0 -0.439931,0"
       id="path22" />
    <path
       style="fill:none;fill-opacity:1;stroke:#ffffff;stroke-width:4;stroke-dasharray:none;stroke-opacity:1"
       d="m 76.449641,155.44008 c 0.59607,0.6828 1.064356,1.50292 1.788211,2.04841 0.343688,0.259 0.889788,0.0442 1.265983,0.2532 0.417351,0.23186 0.62166,0.73899 1.012788,1.01278 0.46382,0.32468 1.027613,0.4787 1.519182,0.75959 0.300411,0.17167 0.462714,0.58147 0.75959,0.75959 0.856435,0.51387 2.399617,1.00129 2.785168,1.77238 0.121483,0.24297 2.927006,1.77238 2.312284,1.77238"
       id="path23" />
    <path
       style="fill:none;fill-opacity:1;stroke:#ffffff;stroke-width:4;stroke-dasharray:none;stroke-opacity:1"
       d="m 51.652172,94.948845 c 0.337595,-0.421992 0.771107,-0.782619 1.012788,-1.265981 0.315206,-0.63041 -0.117951,-1.82426 0,-2.53197 0.127923,-0.767532 0.388075,-1.509699 0.506394,-2.278772 0.05133,-0.333671 -0.0555,-0.679786 0,-1.012788 0.204002,-1.223999 1.19834,-2.125061 1.3971,-3.320661"
       id="path24" />
    <path
       style="fill:#ffffff;fill-opacity:1;stroke:#ffffff;stroke-width:4;stroke-dasharray:none;stroke-opacity:1"
       d="m 152.44749,106.9251 c -0.008,-0.27491 -0.2521,-0.67268 -0.0229,-0.82472 0.35164,-0.2333 0.84608,0.042 1.26598,0 1.09637,-0.10964 2.78571,-0.42218 3.79796,-0.75959 0.30383,-0.10128 0.70895,0.10127 1.01279,0 0.46551,-0.15518 1.54536,-0.77269 2.02557,-1.01279 0.21351,-0.10676 0.29288,-0.39964 0.50639,-0.50639 0.0755,-0.0378 0.19352,0.0597 0.2532,0 0.0597,-0.0597 0.0142,-0.17001 0,-0.2532 -0.1548,-0.90547 -0.3376,-1.80593 -0.50639,-2.7089"
       id="path25" />
    <text
       xml:space="preserve"
       style="font-style:normal;font-variant:normal;font-weight:normal;font-stretch:normal;font-size:48.00700147px;line-height:0;font-family:Consolas;-inkscape-font-specification:Consolas;white-space:pre;inline-size:54.49;fill:#ffffff;fill-opacity:1;stroke:#ffffff;stroke-width:1.68272;stroke-linecap:round;stroke-linejoin:bevel;stroke-dasharray:none;stroke-dashoffset:0;stroke-opacity:1"
       x="129.94212"
       y="88.862091"
       id="text30"
       transform="matrix(1.194198,0,0,1.1575957,-43.97081,-0.1305395)"><tspan
         x="129.94212"
         y="88.862091"
         id="tspan2">&gt;</tspan></text>
    <text
       xml:space="preserve"
       style="font-style:normal;font-variant:normal;font-weight:normal;font-stretch:normal;font-size:61.5488px;line-height:0;font-family:Consolas;-inkscape-font-specification:Consolas;fill:#ffffff;fill-opacity:1;stroke:#ffffff;stroke-width:1.09044;stroke-linecap:round;stroke-linejoin:bevel;stroke-opacity:1"
       x="180.81169"
       y="74.767715"
       id="text1"
       transform="scale(0.80964384,1.235111)"><tspan
         sodipodi:role="line"
         id="tspan1"
         style="fill:#ffffff;fill-opacity:1;stroke-width:1.09044;stroke:#ffffff;stroke-opacity:1"
         x="180.81169"
         y="74.767715">_</tspan></text>
  </g>
</svg>
